{"accessors":[{"bufferView":0,"componentType":5121,"count":63,"max":[22],"min":[0],"type":"SCALAR"},{"bufferView":1,"componentType":5126,"count":23,"max":[7.434132099151611,2.0826682121510148e-13,10.0],"min":[-18.287105560302734,-4.752856704666637e-14,-15.636323928833008],"type":"VEC3"},{"bufferView":2,"componentType":5126,"count":23,"max":[-1.6078500106976113e-15,1.0,8.584608616687712e-15],"min":[-1.6078500106976113e-15,1.0,8.584608616687712e-15],"type":"VEC3"},{"bufferView":3,"componentType":5126,"count":23,"max":[0.759874701499939,1.0],"min":[0.3799373507499695,0.04748713970184326],"type":"VEC2"},{"bufferView":4,"componentType":5121,"count":144,"max":[95],"min":[0],"type":"SCALAR"},{"bufferView":5,"componentType":5126,"count":96,"max":[7.434132099151611,3.0271995067596436,10.0],"min":[-18.287105560302734,-4.752856704666637e-14,-15.636323928833008],"type":"VEC3"},{"bufferView":6,"componentType":5126,"count":96,"max":[1.0,7.875879504126715e-08,1.0],"min":[-1.0,-1.575175900825343e-07,-1.0],"type":"VEC3"},{"bufferView":7,"componentType":5126,"count":96,"max":[1.0,1.0],"min":[0.7598746418952942,0.0],"type":"VEC2"},{"bufferView":8,"componentType":5121,"count":63,"max":[22],"min":[0],"type":"SCALAR"},{"bufferView":9,"componentType":5126,"count":23,"max":[7.434132099151611,2.0826682121510148e-13,10.0],"min":[-18.287105560302734,-4.752856704666637e-14,-15.636323928833008],"type":"VEC3"},{"bufferView":10,"componentType":5126,"count":23,"max":[-1.6078500106976113e-15,1.0,8.584608616687712e-15],"min":[-1.6078500106976113e-15,1.0,8.584608616687712e-15],"type":"VEC3"},{"bufferView":11,"componentType":5126,"count":23,"max":[0.759874701499939,1.0],"min":[0.3799373507499695,0.04748713970184326],"type":"VEC2"}],"asset":{"generator":"Soft8Soft Verge3D for Blender add-on","version":"2.0"},"bufferViews":[{"buffer":0,"byteLength":63,"byteOffset":0,"target":34963},{"buffer":0,"byteLength":276,"byteOffset":64,"target":34962},{"buffer":0,"byteLength":276,"byteOffset":340,"target":34962},{"buffer":0,"byteLength":184,"byteOffset":616,"target":34962},{"buffer":0,"byteLength":144,"byteOffset":800,"target":34963},{"buffer":0,"byteLength":1152,"byteOffset":944,"target":34962},{"buffer":0,"byteLength":1152,"byteOffset":2096,"target":34962},{"buffer":0,"byteLength":768,"byteOffset":3248,"target":34962},{"buffer":0,"byteLength":63,"byteOffset":4016,"target":34963},{"buffer":0,"byteLength":276,"byteOffset":4080,"target":34962},{"buffer":0,"byteLength":276,"byteOffset":4356,"target":34962},{"buffer":0,"byteLength":184,"byteOffset":4632,"target":34962}],"buffers":[{"byteLength":4816,"uri":"Estudio.bin"}],"cameras":[{"extensions":{"S8S_v3d_camera_data":{"controls":"FIRST_PERSON","enablePan":true,"fpsCollisionMaterial":0,"fpsGazeLevel":1.7999999523162842,"fpsStoryHeight":3.0,"moveSpeed":1.0,"rotateSpeed":1.0,"viewportFitInitialAspect":1.7777777777777777,"viewportFitType":"AUTO"}},"name":"Camera","perspective":{"aspectRatio":1.7777777777777777,"yfov":0.39959652046304894,"zfar":100.0,"znear":0.10000000149011612},"type":"perspective"}],"extensions":{"S8S_v3d_data":{"lights":[{"color":[1.0,0.5860656499862671,0.48460718989372253],"constantAttenuation":1.0,"decay":2,"distance":44.72136004979594,"intensity":2000.0,"linearAttenuation":0.0,"name":"Point","profile":"blender","quadraticAttenuation":0.022360679525097828,"shadow":{"bias":-0.0018,"cameraFar":44.72136004979594,"cameraFov":0,"cameraNear":0.05000000074505806,"enabled":true,"expBias":2.5,"mapSize":512,"radius":1.0,"slopeScaledBias":2.5},"type":"point"},{"color":[0.8583683371543884,1.0,0.5496272444725037],"constantAttenuation":1.0,"decay":2,"distance":38.729833894913796,"intensity":1500.0,"linearAttenuation":0.0,"name":"Point.001","profile":"blender","quadraticAttenuation":0.025819888686156364,"shadow":{"bias":-0.0018,"cameraFar":38.729833894913796,"cameraFov":0,"cameraNear":0.05000000074505806,"enabled":true,"expBias":2.5,"mapSize":512,"radius":1.0,"slopeScaledBias":2.5},"type":"point"}]}},"extensionsUsed":["S8S_v3d_texture_data","S8S_v3d_material_data","S8S_v3d_camera_data","S8S_v3d_data","S8S_v3d_mesh_data","S8S_v3d_node_data","S8S_v3d_scene_data"],"images":[{"uri":"map_studio.png"},{"uri":"Bake_STUDIO.png"}],"materials":[{"extensions":{"S8S_v3d_material_data":{"nodeGraph":{"edges":[{"fromNode":2,"fromOutput":0,"toInput":0,"toNode":0},{"fromNode":3,"fromOutput":0,"toInput":0,"toNode":2}],"nodes":[{"inputs":[[0,0,0,0],[0,0,0,0],[0.0,0.0,0.0]],"is_active_output":true,"name":"Material Output","outputs":[],"type":"OUTPUT_MATERIAL_BL"},{"inputs":[[0.0,0.0,0.0]],"is_active_output":false,"name":"Image Texture","outputs":[[0.0,0.0,0.0,0.0],0.0],"projection":"FLAT","projectionBlend":0.0,"texture":0,"type":"TEX_IMAGE_BL"},{"inputs":[[0.800000011920929,0.800000011920929,0.800000011920929,1.0],0.0,[1.0,0.20000000298023224,0.10000000149011612],[0.800000011920929,0.800000011920929,0.800000011920929,1.0],0.0,0.5,0.0,0.4000000059604645,0.0,0.0,0.0,0.5,0.0,0.029999999329447746,1.4500000476837158,0.0,0.0,[0.0,0.0,0.0,1.0],1.0,[0.0,0.0,0.0],[0.0,0.0,0.0],[0.0,0.0,0.0]],"is_active_output":false,"name":"Principled BSDF","outputs":[[0,0,0,0]],"type":"BSDF_PRINCIPLED_BL"},{"inputs":[[0.0,0.0,0.0]],"is_active_output":false,"name":"Image Texture.001","outputs":[[0.0,0.0,0.0,0.0],0.0],"projection":"FLAT","projectionBlend":0.0,"texture":1,"type":"TEX_IMAGE_BL"}]},"useCastShadows":true}},"name":"estudio"},{"extensions":{"S8S_v3d_material_data":{"nodeGraph":{"edges":[{"fromNode":1,"fromOutput":0,"toInput":0,"toNode":0}],"nodes":[{"inputs":[[0,0,0,0],[0,0,0,0]],"is_active_output":true,"name":"World Output","outputs":[],"type":"OUTPUT_WORLD_BL"},{"inputs":[[0.05087608844041824,0.05087608844041824,0.05087608844041824,1.0],1.0],"is_active_output":false,"name":"Background","outputs":[[0,0,0,0]],"type":"BACKGROUND_BL"}]},"useCastShadows":true}},"name":"Verge3D_Environment_World"}],"meshes":[{"extensions":{"S8S_v3d_mesh_data":{"colorLayers":{},"uvLayers":{"UVMap":"TEXCOORD_0"}}},"name":"Plane.001","primitives":[{"attributes":{"NORMAL":2,"POSITION":1,"TEXCOORD_0":3},"indices":0,"material":0,"mode":4}]},{"extensions":{"S8S_v3d_mesh_data":{"colorLayers":{},"uvLayers":{"UVMap":"TEXCOORD_0"}}},"name":"Plane.002","primitives":[{"attributes":{"NORMAL":6,"POSITION":5,"TEXCOORD_0":7},"indices":4,"material":0,"mode":4}]},{"extensions":{"S8S_v3d_mesh_data":{"colorLayers":{},"uvLayers":{"UVMap":"TEXCOORD_0"}}},"name":"Plane.004","primitives":[{"attributes":{"NORMAL":10,"POSITION":9,"TEXCOORD_0":11},"indices":8,"material":0,"mode":4}]}],"nodes":[{"camera":0,"extensions":{"S8S_v3d_node_data":{"frustumCulling":true,"groupNames":["Collection"],"hidden":false,"renderOrder":0}},"name":"Camera","rotation":[-0.05616863816976547,-0.014881088398396969,-0.0008370670839212835,0.9983100295066833],"scale":[1.0,0.9999999403953552,1.0],"translation":[11.052605628967285,2.5153141021728516,11.876884460449219]},{"extensions":{"S8S_v3d_node_data":{"frustumCulling":true,"groupNames":["Collection 2"],"hidden":false,"renderOrder":0,"useShadows":true}},"mesh":2,"name":"Piso","scale":[2.0,2.0,2.0]},{"extensions":{"S8S_v3d_node_data":{"frustumCulling":true,"groupNames":["Collection"],"hidden":false,"light":0,"renderOrder":0}},"name":"Point","rotation":[-0.7071068286895752,0.0,0.0,0.7071068286895752],"scale":[1.0,0.9999999403953552,0.9999999403953552],"translation":[-9.089143753051758,2.252011299133301,3.6484017372131348]},{"extensions":{"S8S_v3d_node_data":{"frustumCulling":true,"groupNames":["Collection"],"hidden":false,"light":1,"renderOrder":0}},"name":"Point.001","rotation":[-0.7071068286895752,0.0,0.0,0.7071068286895752],"scale":[1.0,0.9999999403953552,0.9999999403953552],"translation":[-28.27183723449707,3.3894338607788086,-24.053733825683594]},{"extensions":{"S8S_v3d_node_data":{"frustumCulling":true,"groupNames":["Collection 2"],"hidden":false,"renderOrder":0,"useShadows":true}},"mesh":1,"name":"Paredes","scale":[2.0,2.0,2.0]},{"extensions":{"S8S_v3d_node_data":{"frustumCulling":true,"groupNames":["Collection 2"],"hidden":false,"renderOrder":0,"useShadows":true}},"mesh":0,"name":"Piso.001","scale":[2.0,2.0,2.0],"translation":[0.0,5.790594100952148,-0.0]}],"samplers":[{}],"scene":0,"scenes":[{"extensions":{"S8S_v3d_scene_data":{"aaMethod":"AUTO","iblEnvironmentMode":"PMREM","physicallyCorrectLights":true,"pmremMaxTileSize":512,"shadowMap":{"esmDistanceScale":1.0,"renderReverseSided":false,"renderSingleSided":true,"type":"PCFPOISSON"},"toneMapping":{"type":"filmicBlender"},"worldMaterial":1}},"extras":{"animFrameRate":24,"coordSystem":"Z_UP_RIGHT"},"name":"Scene","nodes":[0,2,3,1,4,5]}],"textures":[{"extensions":{"S8S_v3d_texture_data":{"colorSpace":"srgb"}},"name":"Untitled","sampler":0,"source":0},{"extensions":{"S8S_v3d_texture_data":{"colorSpace":"srgb"}},"name":"Bake","sampler":0,"source":1}]}
